<?xml version="1.0" encoding="UTF-8" standalone="no"?>
<svg
   xmlns:dc="http://purl.org/dc/elements/1.1/"
   xmlns:cc="http://creativecommons.org/ns#"
   xmlns:rdf="http://www.w3.org/1999/02/22-rdf-syntax-ns#"
   xmlns:svg="http://www.w3.org/2000/svg"
   xmlns="http://www.w3.org/2000/svg"
   xmlns:sodipodi="http://sodipodi.sourceforge.net/DTD/sodipodi-0.dtd"
   xmlns:inkscape="http://www.inkscape.org/namespaces/inkscape"
   version="1.1"
   width="531.32727"
   height="520.52216"
   viewBox="0 0 531.32727 520.52216"
   id="svg2778"
   xml:space="preserve"
   sodipodi:docname="chip.svg"
   inkscape:version="1.0.1 (3bc2e813f5, 2020-09-07)"><metadata
     id="metadata98"><rdf:RDF><cc:Work
         rdf:about=""><dc:format>image/svg+xml</dc:format><dc:type
           rdf:resource="http://purl.org/dc/dcmitype/StillImage" /><dc:title></dc:title></cc:Work></rdf:RDF></metadata><sodipodi:namedview
     pagecolor="#ffffff"
     bordercolor="#666666"
     borderopacity="1"
     objecttolerance="10"
     gridtolerance="10"
     guidetolerance="10"
     inkscape:pageopacity="0"
     inkscape:pageshadow="2"
     inkscape:window-width="1920"
     inkscape:window-height="1017"
     id="namedview96"
     showgrid="false"
     fit-margin-top="0"
     fit-margin-left="0"
     fit-margin-right="0"
     fit-margin-bottom="0"
     inkscape:zoom="0.70525292"
     inkscape:cx="188.28276"
     inkscape:cy="189.65747"
     inkscape:window-x="-8"
     inkscape:window-y="-8"
     inkscape:window-maximized="1"
     inkscape:current-layer="svg2778" /><defs
     id="defs2782" /><g
     transform="matrix(2.0294228,0,0,-2.0294228,199.28728,441.58414)"
     id="g2826" /><g
     id="g1156"
     transform="translate(0,30)"><g
       transform="matrix(2.0294228,0,0,-2.0294228,0.94165494,332.24087)"
       id="g2846"
       style="fill:#333333"><path
         d="m 0,0 155.755,-0.245 88.572,163.52 -156.03,0.437 L 0,0"
         id="path2848"
         style="fill:#333333;fill-opacity:1;fill-rule:evenodd;stroke:none" /></g><g
       transform="matrix(2.0294228,0,0,-2.0294228,496.78443,0.88685543)"
       id="g2870"><path
         d="m 0,0 0.108,-0.218 0.246,-0.6 c 2.418,-6.1 4.878,-12.195 7.338,-18.278 L 7.773,-19.314 6.846,-21.06 C -20.599,-71.695 -47.977,-122.367 -75.45,-172.987 l -3.465,-6.383 -1.882,-3.465 -4.665,-0.028 c -48.609,0.001 -97.217,0.36 -145.827,0.301 l -5.292,-0.055 -7.746,19.342 155.755,-0.245 L 0,0"
         id="path2872"
         style="fill:#18110e;fill-opacity:1;fill-rule:evenodd;stroke:none" /></g><g
       transform="matrix(2.0294228,0,0,-2.0294228,332.81316,372.98762)"
       id="g2874"><path
         d="m 0,0 -155.784,0.245 v 1.01 L 0,1.009 Z M 0.436,0.273 0.3,0 H 0 V 0.518 Z M 89.007,163.793 0.436,0.273 l -0.873,0.463 88.572,163.521 0.872,-0.464"
         id="path2876"
         style="fill:#ffffff;fill-opacity:1;fill-rule:nonzero;stroke:none" /></g><g
       transform="matrix(2.0294228,0,0,-2.0294228,497.72608,0.49923543)"
       id="g2878"
       style="fill:#b3b3b3"><path
         d="M 0,0 7.773,-19.342 6.846,-19.696 -0.928,-0.382 0,0"
         id="path2880"
         style="fill:#b3b3b3;fill-opacity:1;fill-rule:nonzero;stroke:none" /></g><g
       transform="matrix(2.0294228,0,0,-2.0294228,1.8812749,331.90804)"
       id="g2882"
       style="fill:#b3b3b3"><path
         d="M 0,0 7.747,-19.315 6.819,-19.67 -0.927,-0.355 0,0"
         id="path2884"
         style="fill:#b3b3b3;fill-opacity:1;fill-rule:nonzero;stroke:none" /></g><g
       transform="matrix(2.0294228,0,0,-2.0294228,317.97605,332.35045)"
       id="g2886"
       style="fill:#b3b3b3"><path
         d="M 0,0 7.775,-19.342 6.847,-19.697 -0.927,-0.382 0,0"
         id="path2888"
         style="fill:#b3b3b3;fill-opacity:1;fill-rule:nonzero;stroke:none" /></g><g
       transform="matrix(2.0294228,0,0,-2.0294228,490.52772,46.672665)"
       id="g2890"
       style="fill:#b3b3b3"><path
         d="m 0,0 4.992,9.139 7.829,0.246 3.9,-15.141 -1.391,-1.828 4.774,-18.469 -0.873,-1.473 -1.883,0.955 -4.118,16.068 -2.128,-3.055 L 7.474,0.218 0,0"
         id="path2892"
         style="fill:#b3b3b3;fill-opacity:1;fill-rule:evenodd;stroke:none" /></g><g
       transform="matrix(2.0294228,0,0,-2.0294228,473.86616,76.679705)"
       id="g2894"
       style="fill:#b3b3b3"><path
         d="m 0,0 5.046,9.221 7.911,0.245 3.928,-15.304 -1.392,-1.828 4.828,-18.633 -0.899,-1.473 -1.883,0.955 -4.173,16.205 -2.128,-3.083 L 7.555,0.218 0,0"
         id="path2896"
         style="fill:#b3b3b3;fill-opacity:1;fill-rule:evenodd;stroke:none" /></g><g
       transform="matrix(2.0294228,0,0,-2.0294228,458.31063,105.96834)"
       id="g2898"
       style="fill:#b3b3b3"><path
         d="m 0,0 4.991,9.139 7.829,0.246 3.873,-15.141 -1.363,-1.828 4.773,-18.468 -0.873,-1.447 -1.882,0.928 -4.146,16.068 -2.101,-3.055 L 7.473,0.246 0,0"
         id="path2900"
         style="fill:#b3b3b3;fill-opacity:1;fill-rule:evenodd;stroke:none" /></g><g
       transform="matrix(2.0294228,0,0,-2.0294228,441.25739,136.58421)"
       id="g2902"
       style="fill:#b3b3b3"><path
         d="m 0,0 5.047,9.221 7.91,0.246 3.902,-15.278 -1.364,-1.855 4.8,-18.632 -0.9,-1.474 -1.882,0.955 -4.174,16.232 -2.127,-3.11 L 7.53,0.246 0,0"
         id="path2904"
         style="fill:#b3b3b3;fill-opacity:1;fill-rule:evenodd;stroke:none" /></g><g
       transform="matrix(2.0294228,0,0,-2.0294228,425.9251,165.20719)"
       id="g2906"
       style="fill:#b3b3b3"><path
         d="m 0,0 4.992,9.139 7.828,0.218 3.901,-15.14 -1.391,-1.828 4.773,-18.469 -0.872,-1.446 -1.883,0.955 -4.119,16.041 -2.127,-3.056 L 7.474,0.218 0,0"
         id="path2908"
         style="fill:#b3b3b3;fill-opacity:1;fill-rule:evenodd;stroke:none" /></g><g
       transform="matrix(2.0294228,0,0,-2.0294228,409.87237,194.93824)"
       id="g2910"
       style="fill:#b3b3b3"><path
         d="m 0,0 4.991,9.14 7.829,0.245 3.9,-15.141 -1.363,-1.828 4.746,-18.469 -0.873,-1.446 -1.882,0.928 -4.119,16.069 -2.128,-3.056 L 7.473,0.219 0,0"
         id="path2912"
         style="fill:#b3b3b3;fill-opacity:1;fill-rule:evenodd;stroke:none" /></g><g
       transform="matrix(2.0294228,0,0,-2.0294228,393.65119,224.50084)"
       id="g2914"
       style="fill:#b3b3b3"><path
         d="m 0,0 5.019,9.139 7.829,0.245 3.873,-15.141 -1.363,-1.827 4.773,-18.47 -0.873,-1.473 -1.883,0.955 -4.145,16.068 -2.101,-3.055 L 7.501,0.218 0,0"
         id="path2916"
         style="fill:#b3b3b3;fill-opacity:1;fill-rule:evenodd;stroke:none" /></g><g
       transform="matrix(2.0294228,0,0,-2.0294228,377.48684,254.23188)"
       id="g2918"
       style="fill:#b3b3b3"><path
         d="m 0,0 4.992,9.139 7.855,0.245 3.874,-15.141 -1.364,-1.827 4.773,-18.469 -0.899,-1.446 -1.883,0.927 -4.119,16.069 -2.127,-3.056 L 7.474,0.245 0,0"
         id="path2920"
         style="fill:#b3b3b3;fill-opacity:1;fill-rule:evenodd;stroke:none" /></g><g
       transform="matrix(2.0294228,0,0,-2.0294228,361.32249,283.79651)"
       id="g2922"
       style="fill:#b3b3b3"><path
         d="m 0,0 4.992,9.139 7.828,0.246 3.901,-15.142 -1.391,-1.828 4.773,-18.468 -0.873,-1.446 -1.882,0.927 -4.119,16.068 -2.127,-3.054 L 7.473,0.245 0,0"
         id="path2924"
         style="fill:#b3b3b3;fill-opacity:1;fill-rule:evenodd;stroke:none" /></g><g
       transform="matrix(2.0294228,0,0,-2.0294228,345.10334,313.36115)"
       id="g2926"
       style="fill:#b3b3b3"><path
         d="m 0,0 4.991,9.139 7.856,0.246 3.873,-15.141 -1.363,-1.828 4.773,-18.469 -0.9,-1.446 -1.882,0.928 -4.119,16.068 -2.128,-3.056 L 7.473,0.245 0,0"
         id="path2928"
         style="fill:#b3b3b3;fill-opacity:1;fill-rule:evenodd;stroke:none" /></g><g
       transform="matrix(2.0294228,0,0,-2.0294228,329.04655,343.03537)"
       id="g2930"
       style="fill:#b3b3b3"><path
         d="m 0,0 5.02,9.139 7.829,0.245 3.873,-15.168 -1.364,-1.8 4.774,-18.47 -0.873,-1.472 -1.883,0.955 -4.145,16.067 L 11.13,-13.586 7.502,0.218 0,0"
         id="path2932"
         style="fill:#b3b3b3;fill-opacity:1;fill-rule:evenodd;stroke:none" /></g><g
       transform="matrix(2.0294228,0,0,-2.0294228,45.558515,351.839)"
       id="g2934"
       style="fill:#b3b3b3"><path
         d="m 0,0 -12.084,-0.327 -7.31,-7.858 8.21,-13.367 2.265,-0.191 11.129,-18.524 2.155,-0.19 0.191,1.637 -9.029,17.35 3.682,0.082 L -7.092,-8.13 0,0"
         id="path2936"
         style="fill:#b3b3b3;fill-opacity:1;fill-rule:evenodd;stroke:none" /></g><g
       transform="matrix(2.0294228,0,0,-2.0294228,79.328105,352.00541)"
       id="g2938"
       style="fill:#b3b3b3"><path
         d="m 0,0 -12.112,-0.3 -7.31,-7.857 8.238,-13.367 2.264,-0.192 11.102,-18.551 2.182,-0.19 0.191,1.664 -9.029,17.323 3.683,0.082 L -7.093,-8.13 0,0"
         id="path2940"
         style="fill:#b3b3b3;fill-opacity:1;fill-rule:evenodd;stroke:none" /></g><g
       transform="matrix(2.0294228,0,0,-2.0294228,113.20729,352.11703)"
       id="g2942"
       style="fill:#b3b3b3"><path
         d="m 0,0 -12.111,-0.327 -7.311,-7.856 8.238,-13.368 2.264,-0.191 11.102,-18.524 2.182,-0.191 0.191,1.664 -9.029,17.324 3.682,0.082 -6.3,13.257 L 0,0"
         id="path2944"
         style="fill:#b3b3b3;fill-opacity:1;fill-rule:evenodd;stroke:none" /></g><g
       transform="matrix(2.0294228,0,0,-2.0294228,146.92006,352.11703)"
       id="g2946"
       style="fill:#b3b3b3"><path
         d="m 0,0 -12.084,-0.3 -7.311,-7.857 8.211,-13.367 2.264,-0.218 11.129,-18.524 2.155,-0.191 0.191,1.664 -9.029,17.324 3.683,0.082 L -7.093,-8.13 0,0"
         id="path2948"
         style="fill:#b3b3b3;fill-opacity:1;fill-rule:evenodd;stroke:none" /></g><g
       transform="matrix(2.0294228,0,0,-2.0294228,180.68762,352.28345)"
       id="g2950"
       style="fill:#b3b3b3"><path
         d="m 0,0 -12.111,-0.3 -7.31,-7.856 8.237,-13.368 2.264,-0.191 11.103,-18.523 2.182,-0.191 0.191,1.636 -9.029,17.351 3.682,0.082 L -7.092,-8.129 0,0"
         id="path2952"
         style="fill:#b3b3b3;fill-opacity:1;fill-rule:evenodd;stroke:none" /></g><g
       transform="matrix(2.0294228,0,0,-2.0294228,214.40242,352.39101)"
       id="g2954"
       style="fill:#b3b3b3"><path
         d="m 0,0 -12.085,-0.301 -7.31,-7.884 8.211,-13.367 2.264,-0.192 11.129,-18.523 2.155,-0.191 0.191,1.664 -9.029,17.323 3.682,0.082 L -7.093,-8.13 0,0"
         id="path2956"
         style="fill:#b3b3b3;fill-opacity:1;fill-rule:evenodd;stroke:none" /></g><g
       transform="matrix(2.0294228,0,0,-2.0294228,248.16999,352.55742)"
       id="g2958"
       style="fill:#b3b3b3"><path
         d="m 0,0 -12.111,-0.301 -7.311,-7.857 8.238,-13.367 2.264,-0.191 11.102,-18.524 2.182,-0.191 0.192,1.638 -9.03,17.349 3.683,0.082 L -7.092,-8.13 0,0"
         id="path2960"
         style="fill:#b3b3b3;fill-opacity:1;fill-rule:evenodd;stroke:none" /></g><g
       transform="matrix(2.0294228,0,0,-2.0294228,281.88276,352.66904)"
       id="g2962"
       style="fill:#b3b3b3"><path
         d="m 0,0 -12.084,-0.3 -7.31,-7.885 8.21,-13.367 2.264,-0.191 11.129,-18.524 2.155,-0.19 0.192,1.664 -9.029,17.323 3.682,0.081 L -7.092,-8.13 0,0"
         id="path2964"
         style="fill:#b3b3b3;fill-opacity:1;fill-rule:evenodd;stroke:none" /></g><g
       transform="matrix(2.0294228,0,0,-2.0294228,315.65236,352.66904)"
       id="g2966"
       style="fill:#b3b3b3"><path
         d="m 0,0 -12.112,-0.3 -7.31,-7.857 8.237,-13.368 2.265,-0.218 11.101,-18.524 2.183,-0.19 0.19,1.664 -9.028,17.323 3.683,0.081 L -7.093,-8.13 0,0"
         id="path2968"
         style="fill:#b3b3b3;fill-opacity:1;fill-rule:evenodd;stroke:none" /></g></g></svg>
